<svg id="icon_action_cached_24px" data-name="icon/action/cached_24px" xmlns="http://www.w3.org/2000/svg" width="24" height="24" viewBox="0 0 24 24">
  <rect id="Boundary" width="24" height="24" fill="none"/>
  <path id="_Color" data-name=" ↳Color" d="M11,16a7.943,7.943,0,0,1-4.26-1.24L8.2,13.3A5.886,5.886,0,0,0,11,14a6.007,6.007,0,0,0,6-6H14l4-4,4,4H19A8.01,8.01,0,0,1,11,16ZM4,12H4L0,8H3A7.986,7.986,0,0,1,15.26,1.24L13.8,2.7A5.886,5.886,0,0,0,11,2,6.007,6.007,0,0,0,5,8H8L4,12Z" transform="translate(1 4)"/>
</svg>
